<svg xmlns="http://www.w3.org/2000/svg" width="1500" height="500" viewBox="0 0 1500 500" role="img" aria-labelledby="title desc">
  <title id="title">WillBuddy X cover</title>
  <desc id="desc">A WillBuddy cover image for X profiles.</desc>
  <rect width="1500" height="500" fill="#FAF8F5"/>
  <rect x="48" y="48" width="1404" height="404" rx="32" fill="#F0EBE4" stroke="#E8E0D6" stroke-width="4"/>
  <text x="92" y="170" fill="#5B7A5E" font-family="Arial, sans-serif" font-size="28" font-weight="700" letter-spacing="3">WILLBUDDY</text>
  <text x="92" y="268" fill="#2D2A26" font-family="Georgia, 'Times New Roman', serif" font-size="68" font-weight="700">Voice-first estate planning prep</text>
  <text x="96" y="332" fill="#5B4F3E" font-family="Arial, sans-serif" font-size="30">Attorney-ready Texas draft documents from a guided conversation.</text>
  <text x="96" y="386" fill="#7A6F62" font-family="Arial, sans-serif" font-size="24">mywillbuddy.com</text>
  <g transform="translate(1224 116)">
    <rect width="188" height="188" rx="48" fill="#FFFFFF" stroke="#D4C9BB" stroke-width="8"/>
    <path d="M56 48c0-13 11-24 24-24h54c11 0 20 4 28 12l26 26c8 8 12 17 12 28v90c0 13-11 24-24 24H80c-13 0-24-11-24-24V48Z" fill="#FFFFFF" stroke="#5B7A5E" stroke-width="12"/>
    <path d="M140 32v44c0 9 7 16 16 16h44" fill="none" stroke="#5B7A5E" stroke-width="12" stroke-linecap="round" stroke-linejoin="round"/>
    <path d="M80 106 104 170l18-48 18 48 24-64" fill="none" stroke="#2D2A26" stroke-width="14" stroke-linecap="round" stroke-linejoin="round"/>
  </g>
</svg>
