<svg xmlns="http://www.w3.org/2000/svg" width="1640" height="624" viewBox="0 0 1640 624" role="img" aria-labelledby="title desc">
  <title id="title">WillBuddy Facebook cover</title>
  <desc id="desc">A WillBuddy cover image sized for Facebook pages.</desc>
  <rect width="1640" height="624" fill="#FAF8F5"/>
  <rect x="64" y="64" width="1512" height="496" rx="36" fill="#F0EBE4" stroke="#E8E0D6" stroke-width="4"/>
  <text x="132" y="202" fill="#5B7A5E" font-family="Arial, sans-serif" font-size="32" font-weight="700" letter-spacing="3">WILLBUDDY</text>
  <text x="132" y="326" fill="#2D2A26" font-family="Georgia, 'Times New Roman', serif" font-size="70" font-weight="700">Plan the hard parts by voice.</text>
  <text x="136" y="398" fill="#5B4F3E" font-family="Arial, sans-serif" font-size="34">Voice-guided Texas estate planning preparation for busy families.</text>
  <text x="136" y="468" fill="#7A6F62" font-family="Arial, sans-serif" font-size="26">mywillbuddy.com</text>
  <circle cx="1376" cy="312" r="128" fill="#FFFFFF" stroke="#D4C9BB" stroke-width="8"/>
  <path d="M1320 246c0-16 13-29 29-29h66c13 0 25 5 34 15l31 31c10 9 15 21 15 34v110c0 16-13 29-29 29h-117c-16 0-29-13-29-29V246Z" fill="#FFFFFF" stroke="#5B7A5E" stroke-width="13"/>
  <path d="M1422 226v54c0 10 8 18 18 18h54" fill="none" stroke="#5B7A5E" stroke-width="13" stroke-linecap="round" stroke-linejoin="round"/>
  <path d="M1350 318 1380 400l22-62 23 62 29-82" fill="none" stroke="#2D2A26" stroke-width="16" stroke-linecap="round" stroke-linejoin="round"/>
</svg>
