<svg xmlns="http://www.w3.org/2000/svg" width="180" height="180" viewBox="0 0 180 180" role="img" aria-label="WillBuddy">
  <rect width="180" height="180" rx="40" fill="#5B7A5E"/>
  <path d="M56 50c0-6.6 5.4-12 12-12h34c3.2 0 6.2 1.3 8.5 3.5l19 19c2.2 2.2 3.5 5.3 3.5 8.5V130c0 6.6-5.4 12-12 12H68c-6.6 0-12-5.4-12-12V50Z" fill="#FAF8F5"/>
  <path d="M102 38v20c0 4.4 3.6 8 8 8h20" fill="none" stroke="#5B7A5E" stroke-width="7" stroke-linecap="round" stroke-linejoin="round"/>
  <path d="M70 80 82 116l9-27 9.5 27L112 80" fill="none" stroke="#2D2A26" stroke-width="9" stroke-linecap="round" stroke-linejoin="round"/>
</svg>
