<svg xmlns="http://www.w3.org/2000/svg" width="32" height="32" viewBox="0 0 32 32" role="img" aria-label="WillBuddy">
  <rect width="32" height="32" rx="8" fill="#5B7A5E"/>
  <path d="M10 8.5c0-1.1.9-2 2-2h6.2c.5 0 1 .2 1.4.6l3.3 3.3c.4.4.6.9.6 1.4V23.5c0 1.1-.9 2-2 2H12c-1.1 0-2-.9-2-2V8.5Z" fill="#FAF8F5"/>
  <path d="M18.2 6.7v3.6c0 .8.6 1.4 1.4 1.4h3.6" fill="none" stroke="#5B7A5E" stroke-width="1.4" stroke-linecap="round" stroke-linejoin="round"/>
  <path d="M12.4 14.2 14.6 21l1.6-5 1.7 5 2.1-6.8" fill="none" stroke="#2D2A26" stroke-width="1.7" stroke-linecap="round" stroke-linejoin="round"/>
</svg>
